<svg id="visual" viewBox="0 0 900 675" width="900" height="675" xmlns="http://www.w3.org/2000/svg" xmlns:xlink="http://www.w3.org/1999/xlink" version="1.1"><g><g transform="translate(672 446)"><path d="M98.1 -32.6C110.1 5 91 51.9 56.3 77.1C21.5 102.2 -28.7 105.5 -60.3 82.7C-91.8 59.8 -104.6 10.8 -91.5 -28.4C-78.3 -67.6 -39.1 -97 2 -97.6C43.1 -98.3 86.1 -70.1 98.1 -32.6Z" fill="#e5d5d5"></path></g><g transform="translate(353 145)"><path d="M82.3 -25.1C93.5 7.6 80.2 49.9 51.1 71.4C21.9 92.8 -23.2 93.4 -51.1 72.6C-78.9 51.8 -89.6 9.6 -78.2 -23.4C-66.8 -56.4 -33.4 -80.3 1.1 -80.7C35.6 -81 71.1 -57.8 82.3 -25.1Z" fill="#e5d5d5"></path></g><g transform="translate(769 18)"><path d="M91 -28.4C104.6 12.2 93 62.1 59.7 87.6C26.4 113.1 -28.6 114.1 -60.6 89.5C-92.5 64.8 -101.4 14.5 -87.4 -26.6C-73.5 -67.6 -36.7 -99.5 1 -99.8C38.7 -100.1 77.4 -68.9 91 -28.4Z" fill="#e5d5d5"></path></g></g></svg>