<svg id="visual" viewBox="0 0 900 675" width="900" height="675" xmlns="http://www.w3.org/2000/svg" xmlns:xlink="http://www.w3.org/1999/xlink" version="1.1"><g><g transform="translate(223 166)"><path d="M112.4 -36C127.2 9.1 108.1 65.8 68.9 94.1C29.7 122.3 -29.5 122.3 -65.2 95.1C-100.9 67.9 -113.1 13.6 -98.3 -31.4C-83.5 -76.5 -41.8 -112.2 3.5 -113.4C48.8 -114.5 97.6 -81 112.4 -36Z" fill="#e5d5d5"></path></g><g transform="translate(589 242)"><path d="M72.7 -23.3C83.5 9.7 74.2 49.5 49 67.9C23.8 86.3 -17.2 83.3 -44.8 63C-72.3 42.6 -86.4 5 -76.6 -26.4C-66.9 -57.9 -33.5 -83.1 -1.2 -82.7C31 -82.3 61.9 -56.2 72.7 -23.3Z" fill="#e5d5d5"></path></g><g transform="translate(725 653)"><path d="M72 -25.1C80.8 3.7 66.8 38.2 43 54.2C19.3 70.3 -14.2 67.9 -36.4 51.5C-58.6 35 -69.5 4.4 -61.6 -23.2C-53.6 -50.7 -26.8 -75.3 2.4 -76.1C31.6 -76.9 63.2 -53.8 72 -25.1Z" fill="#e5d5d5"></path></g><g transform="translate(60 459)"><path d="M53.9 -21C61.2 5 52.5 32.6 33.5 46.6C14.4 60.6 -15 60.9 -36.8 46.1C-58.5 31.4 -72.7 1.6 -65.3 -24.5C-57.9 -50.6 -28.9 -72.9 -2.8 -72C23.3 -71.1 46.6 -46.9 53.9 -21Z" fill="#e5d5d5"></path></g></g></svg>