<svg id="visual" viewBox="0 0 900 675" width="900" height="675" xmlns="http://www.w3.org/2000/svg" xmlns:xlink="http://www.w3.org/1999/xlink" version="1.1"><rect x="0" y="0" width="900" height="675" fill="#FFFFFF"></rect><defs><linearGradient id="grad1_0" x1="25%" y1="100%" x2="100%" y2="0%"><stop offset="23.333333333333336%" stop-color="#ffffff" stop-opacity="1"></stop><stop offset="76.66666666666666%" stop-color="#ffffff" stop-opacity="1"></stop></linearGradient></defs><defs><linearGradient id="grad2_0" x1="0%" y1="100%" x2="75%" y2="0%"><stop offset="23.333333333333336%" stop-color="#ffffff" stop-opacity="1"></stop><stop offset="76.66666666666666%" stop-color="#ffffff" stop-opacity="1"></stop></linearGradient></defs><g transform="translate(900, 675)"><path d="M-506.2 0C-463.2 -49.3 -420.2 -98.7 -403.7 -167.2C-387.3 -235.8 -397.5 -323.6 -358 -358C-318.4 -392.3 -229.1 -373.2 -161.1 -389C-93.2 -404.8 -46.6 -455.5 0 -506.2L0 0Z" fill="#c8bebe"></path></g><g transform="translate(0, 0)"><path d="M506.3 0C499.6 65 492.9 130 467.7 193.7C442.5 257.4 398.7 319.8 340.1 340.1C281.5 360.4 208 338.7 148.9 359.4C89.7 380.1 44.9 443.2 0 506.3L0 0Z" fill="#c8bebe"></path></g></svg>