<svg id="visual" viewBox="0 0 900 675" width="900" height="675" xmlns="http://www.w3.org/2000/svg" xmlns:xlink="http://www.w3.org/1999/xlink" version="1.1"><g><g transform="translate(132 436)"><path d="M93.4 -32C106.8 10.8 93.5 60.7 60.4 85.3C27.2 110 -26 109.4 -61.5 83.8C-97 58.2 -114.9 7.5 -101.8 -35.1C-88.6 -77.7 -44.3 -112.2 -2.1 -111.5C40 -110.8 80 -74.9 93.4 -32Z" fill="#e5d5d5"></path></g><g transform="translate(437 605)"><path d="M55.8 -16C62.9 3.6 52.7 31 34.5 43.3C16.3 55.5 -9.8 52.5 -28 39.2C-46.2 25.8 -56.4 2.1 -50.4 -16.1C-44.4 -34.3 -22.2 -47 1.1 -47.3C24.4 -47.7 48.7 -35.7 55.8 -16Z" fill="#e5d5d5"></path></g><g transform="translate(16 141)"><path d="M92.5 -31.9C105.1 8.6 90.2 56.2 57.3 80.6C24.3 104.9 -26.8 106.1 -62 81.4C-97.1 56.8 -116.4 6.4 -103.4 -34.7C-90.4 -75.8 -45.2 -107.6 -2.6 -106.8C40 -105.9 79.9 -72.4 92.5 -31.9Z" fill="#e5d5d5"></path></g></g></svg>